<?xml version="1.0" standalone="no"?>
<!DOCTYPE svg PUBLIC "-//W3C//DTD SVG 20010904//EN"
 "http://www.w3.org/TR/2001/REC-SVG-20010904/DTD/svg10.dtd">
<svg version="1.0" xmlns="http://www.w3.org/2000/svg"
 width="523.000000pt" height="302.000000pt" viewBox="0 0 523.000000 302.000000"
 preserveAspectRatio="xMidYMid meet">

<g transform="translate(0.000000,302.000000) scale(0.100000,-0.100000)"
fill="#000000" stroke="none">
<path d="M3266 1979 l-26 -20 0 -379 c0 -208 3 -386 6 -395 15 -38 55 -45 269
-45 177 0 211 -2 238 -17 49 -27 179 -24 232 4 134 71 190 236 124 364 -17 34
-19 60 -19 249 0 211 0 211 -25 235 l-24 25 -374 0 c-364 0 -375 -1 -401 -21z
m372 -206 l2 -173 -175 0 -175 0 0 163 c0 115 4 167 12 175 9 9 57 12 173 10
l160 -3 3 -172z m390 165 c13 -13 18 -353 5 -346 -134 69 -202 69 -335 0 -10
-5 -11 342 -1 351 12 13 318 8 331 -5z m-95 -359 c48 -13 102 -61 129 -112 29
-58 23 -159 -15 -215 -113 -171 -380 -104 -395 99 -12 163 123 272 281 228z
m-299 -38 c3 -5 -4 -31 -16 -57 -33 -71 -31 -165 5 -233 l26 -51 -177 2 -177
3 -3 160 c-1 87 0 165 2 172 4 10 45 13 170 13 91 0 167 -4 170 -9z"/>
<path d="M3445 1846 c-3 -9 -7 -22 -9 -30 -3 -8 -15 -16 -28 -18 -15 -2 -24
-11 -26 -25 -3 -17 2 -22 25 -25 22 -2 29 -9 31 -31 3 -22 8 -28 25 -25 13 2
23 13 27 28 4 15 15 26 30 30 36 8 34 44 -2 48 -21 3 -27 9 -30 30 -3 30 -35
43 -43 18z"/>
<path d="M3797 1794 c-4 -4 -7 -16 -7 -26 0 -16 9 -18 76 -18 72 0 75 1 72 23
-3 20 -9 22 -68 25 -36 2 -69 0 -73 -4z"/>
<path d="M3784 1425 c-11 -28 10 -36 87 -33 66 3 74 5 74 23 0 18 -8 20 -78
23 -64 2 -78 0 -83 -13z"/>
<path d="M3782 1328 c3 -22 8 -23 83 -23 75 0 80 1 83 23 3 21 1 22 -83 22
-84 0 -86 -1 -83 -22z"/>
<path d="M3395 1430 c-4 -6 1 -22 10 -36 16 -24 15 -27 -1 -45 -16 -18 -17
-21 -1 -36 15 -16 18 -15 37 2 19 17 21 17 40 0 10 -9 26 -15 35 -12 18 7 20
38 3 55 -9 9 -9 17 1 36 22 39 -11 65 -39 31 -12 -14 -15 -14 -30 0 -19 17
-46 20 -55 5z"/>
</g>
</svg>
